<?xml version="1.0" encoding="UTF-8" standalone="no"?>
<!-- Created with Inkscape (http://www.inkscape.org/) -->

<svg
   version="1.1"
   id="svg1"
   width="414.90637"
   height="112.09825"
   viewBox="0 0 414.90637 112.09825"
   sodipodi:docname="কাজী নজরুল ইসলামের স্বাক্ষর.svg"
   inkscape:version="1.3 (0e150ed6c4, 2023-07-21)"
   xmlns:inkscape="http://www.inkscape.org/namespaces/inkscape"
   xmlns:sodipodi="http://sodipodi.sourceforge.net/DTD/sodipodi-0.dtd"
   xmlns="http://www.w3.org/2000/svg"
   xmlns:svg="http://www.w3.org/2000/svg">
  <defs
     id="defs1" />
  <sodipodi:namedview
     id="namedview1"
     pagecolor="#ffffff"
     bordercolor="#000000"
     borderopacity="0.25"
     inkscape:showpageshadow="2"
     inkscape:pageopacity="0.0"
     inkscape:pagecheckerboard="0"
     inkscape:deskcolor="#d1d1d1"
     inkscape:zoom="2.0279851"
     inkscape:cx="171.1058"
     inkscape:cy="22.929163"
     inkscape:window-width="1920"
     inkscape:window-height="1009"
     inkscape:window-x="-8"
     inkscape:window-y="-8"
     inkscape:window-maximized="1"
     inkscape:current-layer="g1" />
  <g
     inkscape:groupmode="layer"
     inkscape:label="Image"
     id="g1"
     transform="translate(-119.91051,-47.827611)">
    <path
       style="fill:#000000"
       d="m 128.33275,157.37423 c -5.69494,-3.19135 -7.43063,-6.10523 -8.22578,-13.80948 -0.99533,-9.64378 1.73335,-20.10889 9.51329,-36.48563 5.70686,-12.012929 8.9969,-16.522708 20.72472,-28.408118 8.31211,-8.42381 14.79747,-13.277654 23.09661,-17.28623 4.33346,-2.093111 8.10402,-4.058613 8.37902,-4.367784 1.12093,-1.260218 11.90092,-4.921907 17.70154,-6.012761 7.38222,-1.388291 9.23277,-1.011949 15.79846,3.212897 4.5976,2.958438 5.76221,3.24141 14.47096,3.516109 15.59214,0.491821 24.60074,4.665697 29.09845,13.481944 l 2.01137,3.942607 2.86566,-2.040531 c 11.14694,-7.937319 25.52095,-13.535946 32.9257,-12.824444 5.36174,0.515196 12.27976,4.629516 13.9507,8.29684 0.61,1.338804 2.69941,3.098664 4.64312,3.910802 2.2208,0.927906 3.52222,2.14587 3.50223,3.277639 -0.0387,2.19056 -1.89919,4.711884 -4.07945,5.528374 -1.13876,0.426454 -1.80659,2.461052 -2.27732,6.938028 -0.36634,3.484044 -0.92986,8.247125 -1.25229,10.584625 -0.53027,3.844353 -0.38449,4.250003 1.52732,4.250003 1.21204,0 2.11355,0.6398 2.11355,1.5 0,0.92762 -0.94054,1.5 -2.46482,1.5 -3.54272,0 -4.87211,-3.14778 -4.0633,-9.621252 0.71897,-5.754428 0.5586,-6.000618 -2.75393,-4.227806 -3.08362,1.650307 -11.74694,1.132801 -13.9173,-0.831356 -3.15308,-2.853491 -2.30482,-7.558919 2.19935,-12.200152 2.2,-2.26695 4,-4.346212 4,-4.620582 0,-0.679131 -4.10093,-0.62867 -7.71919,0.09498 -2.88013,0.576025 -2.95542,0.737229 -2.50988,5.373982 0.6287,6.542987 -2.56537,24.032186 -4.38902,24.032186 -0.93401,0 -1.38191,-1.23453 -1.38191,-3.80887 0,-2.094885 -0.64159,-4.682385 -1.42575,-5.750007 -1.41127,-1.921403 -1.45954,-1.921375 -4.75,0.0028 -4.01104,2.345489 -5.14245,3.413632 -6.7015,6.326747 -1.3934,2.60359 -2.93709,2.87678 -3.78403,0.66967 -0.68982,-1.797619 3.4735,-6.535803 8.44818,-9.614718 2.42154,-1.498733 4.18497,-1.865842 6.69802,-1.394391 3.28916,0.617051 3.43533,0.510821 4.08862,-2.971504 0.57924,-3.087618 0.24321,-8.843623 -0.79105,-13.55029 -0.36982,-1.682964 5.57041,-2.778174 15.46751,-2.851769 8.84521,-0.06577 9.78598,-1.166678 4.67327,-5.468737 -2.49279,-2.097548 -4.1192,-2.588893 -8.56952,-2.588893 -6.34931,0 -17.48942,4.207692 -25.61212,9.673869 -2.78198,1.872135 -5.70359,3.76509 -6.49247,4.206568 -0.90233,0.50497 -1.75133,3.550485 -2.28903,8.211125 -0.47009,4.074641 -2.25417,11.683438 -3.96462,16.90844 -2.92677,8.94053 -4.06532,16.59353 -2.97543,20 0.3178,0.9933 -0.19567,1.5 -1.52008,1.5 -1.80136,0 -1.99372,-0.64558 -1.93672,-6.5 0.0382,-3.92635 1.31996,-11.25136 3.23716,-18.500002 3.27399,-12.378504 3.76148,-15.5 2.42067,-15.5 -0.42839,0 -3.62635,2.872999 -7.10658,6.384442 -6.14305,6.198141 -6.31321,6.509876 -5.83117,10.68294 0.27309,2.36417 1.22105,4.82828 2.10658,5.4758 2.02581,1.48131 2.0887,3.45682 0.11006,3.45682 -2.15304,0 -5.5,-3.65124 -5.5,-6 0,-3.446702 -2.34781,-2.09701 -6.62163,3.80661 -7.33035,10.12573 -10.9844,19.41086 -11.48868,29.19339 -0.31905,6.18916 0.068,7.95766 2.21031,10.1 2.63974,2.63974 1.18121,4.48569 -1.86076,2.35501 -4.20658,-2.9464 -5.45149,-7.36665 -4.22935,-15.01697 0.60281,-3.7734 1.44339,-7.32812 1.86798,-7.89938 0.42458,-0.57127 1.2994,-2.88639 1.94406,-5.14472 0.64465,-2.25833 2.29844,-5.76581 3.67508,-7.79441 1.37664,-2.02859 2.50299,-4.08087 2.50299,-4.56061 0,-0.47974 0.40024,-1.02226 0.88942,-1.20559 0.91478,-0.34284 10.11058,-11.365427 10.11058,-12.119093 0,-0.23136 -2.15497,-0.213589 -4.78881,0.03949 -3.5911,0.345058 -5.12217,0.05846 -6.12169,-1.145889 -1.82851,-2.203217 0.14541,-6.858167 4.29559,-10.129998 l 3.11491,-2.455664 -3.5,0.0042 c -1.925,0.0023 -3.99628,0.334833 -4.60284,0.738911 -0.60657,0.404078 -1.34478,3.474219 -1.64047,6.822537 -1.02537,11.610806 -6.12315,15.908786 -11.75669,9.91215 -1.71144,-1.821742 -3.38655,-2.5 -6.17432,-2.5 -3.70554,0 -3.82568,0.109912 -3.82568,3.5 0,3.995496 -1.10775,4.347006 -4.72713,1.500006 -1.6256,-1.278699 -4.05679,-2.000006 -6.74106,-2.000006 -2.30917,0 -4.52876,-0.330279 -4.93243,-0.733954 -0.40368,-0.403675 1.58588,-2.822472 4.42124,-5.375105 4.07122,-3.665258 5.22459,-5.387778 5.48522,-8.191958 0.47296,-5.088883 3.17084,-10.207924 7.28248,-13.817993 4.15464,-3.647817 9.82107,-6.244858 11.89179,-5.450247 2.0388,0.782362 0.79804,2.305327 -2.46141,3.021221 -3.20731,0.704443 -9.02613,5.058389 -8.06163,6.032136 0.36139,0.364855 2.09735,-0.08143 3.8577,-0.99174 2.98797,-1.545137 5.17963,-1.506199 9.54672,0.169609 1.55138,0.595321 1.67181,0.198475 1.0741,-3.53941 -1.44813,-9.056097 -4.27917,-9.861594 -20.36694,-5.794869 -5.06452,1.280229 -9.77129,1.979697 -10.45948,1.554373 -0.68819,-0.425325 -0.9949,-1.029669 -0.68158,-1.342987 0.75292,-0.752924 9.65373,-2.982643 18.37241,-4.602423 3.85,-0.715264 7.16607,-1.42219 7.36904,-1.570947 0.20298,-0.148758 -0.3585,-0.998016 -1.24772,-1.88724 -5.40125,-5.401251 -17.17196,-3.272868 -36.62132,6.621878 -10.40363,5.292782 -13.33336,7.435937 -22.41864,16.399656 -11.31827,11.16684 -17.19992,19.860251 -23.13176,34.190066 -4.41481,10.66504 -5.50836,15.40129 -6.15013,26.63653 -0.47106,8.24671 -0.34964,8.99155 1.84817,11.33732 1.2938,1.3809 3.86981,3.14643 5.72448,3.9234 3.68438,1.5435 16.12788,1.95185 16.12788,0.52926 0,-1.14484 5.26842,-2.18602 6.25374,-1.2359 0.41456,0.39975 0.14803,1.55519 -0.59229,2.56764 -1.11051,1.51872 -3.0797,1.91091 -11.25375,2.24137 -9.36386,0.37856 -10.18149,0.24712 -14.89556,-2.39457 z m 72.48786,-62.385515 c 0,-2.467179 -2.54017,-3.536119 -4.51274,-1.899029 -2.08554,1.730843 -1.85416,2.915216 0.76274,3.904242 2.78691,1.053281 3.75,0.538294 3.75,-2.005213 z m 19.44329,0.867896 c 0.85619,-1.222379 1.55671,-3.922379 1.55671,-6 0,-5.28025 -2.39891,-4.918307 -4.53875,0.6848 -2.49633,6.536542 -0.44028,10.201249 2.98204,5.3152 z m -8.61454,-4.108703 c 0.27033,-1.417724 -0.17665,-1.756423 -1.97957,-1.5 -1.29371,0.183999 -2.48395,1.145112 -2.67793,2.162418 -0.27034,1.417724 0.17665,1.756422 1.97957,1.5 1.29371,-0.183999 2.48394,-1.145112 2.67793,-2.162418 z m 22.17125,-2.168791 c 0,-2.792949 -1.45881,-3.352703 -2.39301,-0.918213 -0.96023,2.502322 -0.72096,3.418213 0.89301,3.418213 0.93333,0 1.5,-0.944445 1.5,-2.5 z m 69.18564,-2.628665 c -0.27947,-3.225955 0.0812,-3.873141 3.25,-5.831559 3.63425,-2.246092 4.19909,-3.48978 2.67631,-5.892868 -1.22232,-1.928941 -9.20369,1.735238 -13.12036,6.023443 -5.20571,5.699521 -3.13771,10.07542 4.50841,9.539802 2.80854,-0.196741 2.97993,-0.441732 2.68564,-3.838818 z m -96.74451,1.596861 c 1.06762,-0.807508 3.17391,-1.468196 4.68066,-1.468196 3.01958,0 9.769,-3.85313 9.83588,-5.615141 0.0233,-0.613328 -0.89033,-2.300828 -2.03025,-3.75 -3.75533,-4.774123 -9.81766,-2.729747 -15.28036,5.152933 -3.8668,5.579797 -2.02459,9.325055 2.79407,5.680404 z m 32.55887,0.531804 c 0,-0.55 -0.45,-1 -1,-1 -0.55,0 -1,0.45 -1,1 0,0.55 0.45,1 1,1 0.55,0 1,-0.45 1,-1 z m 8.51804,-2.25 c 1.82492,-1.7875 4.97365,-4.738732 6.99717,-6.558293 3.51584,-3.161453 3.62267,-3.444608 2.407,-6.379511 -3.12053,-7.533613 -10.12314,-11.648852 -21.60477,-12.696525 -10.30949,-0.940718 -13.9309,-0.130438 -12.37878,2.76972 0.56053,1.047362 1.29122,4.539115 1.62375,7.759451 0.87679,8.491221 0.71529,8.270087 5.17118,7.080744 5.01014,-1.337283 9.26641,-0.315692 9.26641,2.224125 0,1.664043 3.89166,8.892069 4.85,9.007963 0.1925,0.02328 1.84312,-1.420174 3.66804,-3.207674 z m 62.48196,-0.642351 c 0,-2.302458 -0.85326,-3.10119 -2.59777,-2.431759 -1.70359,0.653729 -1.8138,2.512543 -0.24215,4.084191 1.46299,1.462992 2.83992,0.661815 2.83992,-1.652432 z m 5.77083,-9.295149 c -0.61807,-1.854223 -2.77083,-2.16176 -2.77083,-0.395834 0,0.870834 0.7125,1.583334 1.58333,1.583334 0.87083,0 1.40521,-0.534375 1.1875,-1.1875 z m 61.03626,23.437503 c -3.14749,-3.665035 -3.04049,-4.290427 1.46237,-8.547182 2.67853,-2.532127 5.1719,-6.141322 6.27235,-9.079341 1.63367,-4.361599 1.67177,-5.153539 0.36082,-7.5 -0.85677,-1.533527 -2.49127,-2.735902 -3.93418,-2.894076 -3.58595,-0.393098 -8.86163,3.27069 -10.55889,7.332805 -1.3711,3.281488 -3.40956,3.914494 -3.40956,1.058772 0,-1.857924 6.92142,-9.620981 8.57792,-9.620981 0.78214,0 1.42208,-0.45 1.42208,-1 0,-0.55 -0.45,-1 -1,-1 -2.01361,0 -5,-4.076829 -5,-6.825686 0,-3.356644 2.97331,-6.429564 8.4253,-8.70755 5.03712,-2.104645 9.83028,-1.228602 12.60952,2.304638 2.07864,2.642555 2.12304,3.831559 0.37262,9.978598 -0.51124,1.795338 -0.23774,2.25 1.35348,2.25 2.84703,0 4.28813,2.183868 5.0761,7.692426 0.88171,6.163954 3.47555,6.711644 3.92696,0.829179 0.60156,-7.839027 4.23878,-10.521605 14.26593,-10.521605 4.80942,0 6.09103,0.35746 6.9349,1.934258 1.70978,3.194745 1.20877,5.327985 -2.46481,10.494962 -3.66109,5.149394 -4.2469,7.423882 -2.39027,9.280509 1.93649,1.936493 6.17839,-0.529007 9.89027,-5.74847 1.925,-2.706846 4.16313,-5.179966 4.97362,-5.495824 1.69824,-0.661826 4.02638,2.070668 4.02638,4.725694 0,2.393293 1.47497,2.288795 3.86223,-0.273629 1.17605,-1.262336 2.86519,-1.951549 4.28896,-1.75 2.21106,0.313001 2.33065,0.688206 2.03913,6.398016 -0.25198,4.935382 0.0703,6.519112 1.72968,8.5 1.69634,2.024993 2.19989,2.190208 2.9937,0.98223 0.52488,-0.79874 0.71878,-1.833386 0.43088,-2.299213 -1.03796,-1.679457 2.92856,-16.181816 6.19329,-22.643871 4.37022,-8.650206 9.48259,-13.730658 17.46213,-17.353092 11.85682,-5.382589 27.02351,-6.527958 38.6671,-2.920087 9.23461,2.861428 19.33704,13.100167 19.32916,19.589961 -0.006,5.103206 -5.90103,13.014581 -10.57051,14.186547 -2.7338,0.68614 -4.88073,-0.552328 -2.42575,-1.399308 0.825,-0.284629 3.1875,-2.19508 5.25,-4.245448 3.19906,-3.180241 3.75,-4.373664 3.75,-8.123082 0,-13.842037 -22.17827,-23.407424 -42.5,-18.330061 -13.62639,3.404539 -21.61592,9.555823 -27.26252,20.989908 -3.43013,6.945845 -4.29158,10.886304 -4.36113,19.948928 -0.0276,3.597264 -0.44128,6.782179 -0.91926,7.077589 -0.47798,0.295409 -2.48006,-0.136013 -4.44906,-0.958716 -4.38638,-1.832745 -6.96297,-7.139347 -6.20615,-12.781847 0.27926,-2.082064 0.16945,-3.994657 -0.24404,-4.250205 -0.86469,-0.534407 -4.88798,3.665919 -7.41963,7.746116 -2.54824,4.106922 -3.87247,2.441215 -3.08294,-3.877935 0.75891,-6.074107 -0.2941,-6.962929 -3.14416,-2.65393 -1.36346,2.061402 -1.75239,4.297907 -1.55324,8.931757 0.22794,5.303867 -0.0168,6.332953 -1.72366,7.246414 -1.09413,0.585561 -2.74877,0.773232 -3.67697,0.417047 -1.36354,-0.52324 -1.57317,-1.482764 -1.09157,-4.996414 0.6504,-4.745193 0.52216,-4.920211 -2.30946,-3.151839 -1.62152,1.012657 -2.23872,0.820182 -4.00835,-1.25 -2.66094,-3.112888 -2.12857,-7.841301 1.40435,-12.473203 3.57967,-4.693183 3.40667,-8.12621 -0.45221,-8.973762 -3.87528,-0.851153 -8.39378,0.161891 -10.28854,2.30668 -1.49796,1.695624 -3.07919,9.983149 -3.63022,19.026653 -0.0447,0.733333 -0.64374,1.136649 -1.33124,0.896257 -0.6875,-0.240393 -1.11895,-1.172802 -0.95876,-2.07202 0.34974,-1.963381 -1.48254,-5.65757 -2.8061,-5.65757 -0.51947,0 -1.85511,1.784954 -2.96809,3.966564 -2.03702,3.992905 -4.55709,6.033436 -7.45131,6.033436 -2.42667,0 -1.84591,-1.333414 1.38018,-3.168823 3.47226,-1.975467 5.31461,-7.526567 4.85673,-14.633568 l -0.30265,-4.697609 -4.25,-0.307498 c -2.3375,-0.169124 -4.25,-0.108062 -4.25,0.135693 0,0.243755 0.67222,1.732129 1.49384,3.307498 0.82161,1.575369 1.49661,3.579932 1.5,4.454584 0.0107,2.752647 -6.01844,13.783911 -8.67613,15.874452 -4.04971,3.185498 -1.81311,6.441134 2.74803,4.000087 1.51275,-0.809602 1.93426,-0.708312 1.93426,0.464816 0,1.591921 -2.92541,3.570371 -5.27927,3.570371 -0.77592,0 -2.08706,-0.7875 -2.91364,-1.75 z m 51.19291,-6.80902 c 0,-0.85746 -0.45734,-1.276365 -1.01631,-0.930902 -0.55898,0.345464 -0.75742,1.047021 -0.44099,1.559017 0.85724,1.387043 1.4573,1.128411 1.4573,-0.628115 z M 388.61777,65.823522 c 1.93506,-2.331611 2.24025,-6.180085 0.65378,-8.244405 -2.3045,-2.998626 -9.47859,-2.762109 -12.87038,0.424314 -3.23903,3.04291 -3.39396,6.81319 -0.33056,8.044524 3.36826,1.353876 11.35585,1.211002 12.54716,-0.224433 z m -52.87949,32.204715 c -1.11573,-0.689562 -1.14817,-1.118625 -0.15931,-2.107479 1.48603,-1.486036 1.65351,-4.841641 0.24164,-4.841641 -0.55,0 -1,0.446577 -1,0.992394 0,0.545816 -0.98115,2.120816 -2.18034,3.5 -1.61603,1.858596 -3.16893,2.507606 -6,2.507606 -3.51796,0 -3.81389,-0.217216 -3.74657,-2.75 0.0402,-1.5125 0.93379,-4.1 1.98577,-5.75 3.98341,-6.247876 8.30961,-15.464864 7.59445,-16.180021 -0.40935,-0.409348 -1.67686,-0.161858 -2.81669,0.549978 -1.37746,0.860239 -2.40675,0.959915 -3.06942,0.297243 -0.66267,-0.662672 0.0475,-1.537157 2.1179,-2.607782 1.71319,-0.885928 3.1149,-2.049222 3.1149,-2.585098 0,-1.467617 -5.28685,-1.170242 -9.34576,0.52568 -4.35439,1.819378 -4.65619,1.835615 -4.647,0.25 0.007,-1.293035 9.1825,-4.75 12.60681,-4.75 1.06751,0 2.92731,0.690884 4.13288,1.535297 1.97573,1.383854 2.81147,1.373543 8.47251,-0.104531 7.60688,-1.986124 16.53638,-1.446165 20.13964,1.217828 3.73675,2.762688 4.94122,5.970196 3.40652,9.071589 -1.94393,3.928385 -4.03466,2.426381 -2.39443,-1.720183 0.32634,-0.825 -0.26509,-2.61456 -1.31429,-3.976799 -1.6696,-2.167749 -2.82159,-2.517688 -9.23226,-2.804495 -4.14216,-0.185317 -9.21489,0.239398 -11.67518,0.977506 -3.91142,1.173457 -4.5422,1.809824 -6.24919,6.304495 -1.04424,2.749611 -1.89899,5.321135 -1.89944,5.714497 -4.5e-4,0.393362 1.41567,2.328493 3.14694,4.300292 2.1824,2.485625 3.63912,3.370015 4.75,2.883786 0.88123,-0.385717 3.40225,-0.85394 5.60225,-1.040497 11.3719,-0.964321 10.96411,-0.813954 11.5,-4.240455 0.72998,-4.667586 2.5326,-3.74932 2.30985,1.176659 -0.42987,9.506484 -1.44865,14.705011 -2.88181,14.705011 -0.95887,0 -1.42804,-1.123018 -1.42804,-3.418213 0,-7.566447 -2.83473,-8.786226 -6,-2.581787 -2.41245,4.728793 -4,5.149104 -4,1.059017 0,-1.617541 -0.4317,-3.207786 -0.95933,-3.533877 -1.61361,-0.997268 -4.94453,1.76066 -5.57093,4.612598 -0.66176,3.012996 -2.44442,4.113978 -4.55207,2.811382 z m -3.99522,-6.304231 c 1.32847,-2.482264 0.9324,-5.644889 -0.70693,-5.644889 -1.30222,0 -5.42109,7.858362 -4.71645,8.998494 0.89898,1.454586 3.8152,-0.348689 5.42338,-3.353605 z"
       id="path4" />
  </g>
</svg>
